<svg width="118" height="118" viewBox="0 0 118 118" fill="none" xmlns="http://www.w3.org/2000/svg">
<g clip-path="url(#clip0_115_934)">
<path d="M27.6753 93.022H24.9062V100.043H26.1404V97.7869H27.5347C29.0789 97.7869 30.343 96.9641 30.343 95.3797C30.343 93.945 29.3094 93.022 27.6753 93.022ZM27.5751 96.6726H26.1404V94.1455H27.5751C28.4981 94.1455 29.0893 94.5765 29.0893 95.4096C29.0893 96.161 28.5073 96.6726 27.5751 96.6726Z" fill="#181202"/>
<path d="M34.1848 94.6363C33.362 94.6363 32.8711 95.0673 32.5288 95.5697V92.72H31.3154V100.042H32.5288V97.0528C32.5288 96.2312 33.0197 95.7391 33.7227 95.7391C34.4256 95.7391 34.8554 96.2104 34.8554 97.0332V100.042H36.0688V96.6725C36.0688 95.4383 35.3774 94.6363 34.1848 94.6363Z" fill="#181202"/>
<path d="M39.4988 94.6663C38.6357 94.6663 38.0642 94.8472 37.4822 95.1076L37.8141 96.0802C38.2958 95.8797 38.7371 95.7495 39.3283 95.7495C40.1718 95.7495 40.6328 96.1505 40.6328 96.8822V97.0136C40.2214 96.8822 39.81 96.7923 39.1681 96.7923C37.9351 96.7923 37.0225 97.3535 37.0225 98.4966V98.5174C37.0225 99.581 37.9052 100.153 38.9077 100.153C39.7097 100.153 40.2617 99.8218 40.6235 99.3909V100.043H41.8266V96.9041C41.8266 95.4902 41.0649 94.6674 39.5 94.6674L39.4988 94.6663ZM40.6523 98.1267C40.6523 98.7893 40.0497 99.2399 39.2476 99.2399C38.6761 99.2399 38.2255 98.9587 38.2255 98.4586V98.4379C38.2255 97.8963 38.6761 97.5851 39.4389 97.5851C39.9102 97.5851 40.3424 97.675 40.6535 97.796V98.1267H40.6523Z" fill="#181202"/>
<path d="M44.3326 95.9409V94.747H43.1191V100.043H44.3326V98.0277C44.3326 96.623 45.0747 95.9305 46.1383 95.9305H46.2086V94.6468C45.2763 94.6076 44.6644 95.1492 44.3326 95.9409Z" fill="#181202"/>
<path d="M53.3077 94.6362C52.5056 94.6362 51.9433 95.0084 51.5135 95.5696C51.2323 95.0084 50.7011 94.6362 49.9382 94.6362C49.1258 94.6362 48.6649 95.0776 48.3238 95.5489V94.7469H47.1104V100.043H48.3238V97.0642C48.3238 96.2414 48.7859 95.7402 49.4565 95.7402C50.1272 95.7402 50.5294 96.2011 50.5294 97.0239V100.043H51.7439V97.0538C51.7439 96.2011 52.2141 95.7402 52.8767 95.7402C53.5393 95.7402 53.9495 96.1907 53.9495 97.0343V100.043H55.1641V96.6632C55.1641 95.3691 54.4612 94.6362 53.3077 94.6362Z" fill="#181202"/>
<path d="M58.6053 94.6663C57.7422 94.6663 57.1706 94.8472 56.5887 95.1076L56.9206 96.0802C57.4022 95.8797 57.8436 95.7495 58.4347 95.7495C59.2783 95.7495 59.7392 96.1505 59.7392 96.8822V97.0136C59.3278 96.8822 58.9164 96.7923 58.2746 96.7923C57.0416 96.7923 56.1289 97.3535 56.1289 98.4966V98.5174C56.1289 99.581 57.0116 100.153 58.0141 100.153C58.8162 100.153 59.3681 99.8218 59.73 99.3909V100.043H60.933V96.9041C60.933 95.4902 60.1713 94.6674 58.6064 94.6674L58.6053 94.6663ZM59.7588 98.1267C59.7588 98.7893 59.1561 99.2399 58.3541 99.2399C57.7825 99.2399 57.332 98.9587 57.332 98.4586V98.4379C57.332 97.8963 57.7825 97.5851 58.5454 97.5851C59.0167 97.5851 59.4488 97.675 59.7599 97.796V98.1267H59.7588Z" fill="#181202"/>
<path d="M64.7315 99.1098C63.7992 99.1098 63.147 98.3481 63.147 97.394C63.147 96.4398 63.7889 95.6989 64.6716 95.6989C65.2835 95.6989 65.6741 95.9697 66.0452 96.3603L66.7976 95.5479C66.3067 95.0063 65.6845 94.6353 64.6808 94.6353C63.0963 94.6353 61.9336 95.8994 61.9336 97.4147C61.9336 98.93 63.0975 100.162 64.6716 100.162C65.7052 100.162 66.316 99.7505 66.838 99.1686L66.1062 98.4461C65.7248 98.8379 65.3042 99.1087 64.7315 99.1087V99.1098Z" fill="#181202"/>
<path d="M71.4217 94.7471L70.0469 98.6789L68.5431 94.7471H67.249L69.4546 100.043C69.2553 100.504 69.0432 100.655 68.7033 100.655C68.4532 100.655 68.2124 100.574 67.9911 100.455L67.5797 101.358C67.9508 101.559 68.3219 101.68 68.8335 101.68C69.6862 101.68 70.1575 101.279 70.5781 100.195L72.6846 94.7494H71.4217V94.7471Z" fill="#181202"/>
<path d="M76.2652 94.7654C76.5948 94.7654 76.8794 94.49 76.8794 94.1512C76.8794 93.8124 76.5948 93.5359 76.2652 93.5359C75.9356 93.5359 75.6406 93.8217 75.6406 94.1512C75.6406 94.4808 75.9264 94.7654 76.2652 94.7654Z" fill="#181202"/>
<path d="M78.0117 94.7654C78.3504 94.7654 78.627 94.49 78.627 94.1512C78.627 93.8124 78.3504 93.5359 78.0117 93.5359C77.6729 93.5359 77.3975 93.8217 77.3975 94.1512C77.3975 94.4808 77.6821 94.7654 78.0117 94.7654Z" fill="#181202"/>
<path d="M97.7941 100.872C97.4541 100.872 97.1787 101.158 97.1787 101.487C97.1787 101.817 97.4541 102.111 97.7941 102.111C98.134 102.111 98.4083 101.826 98.4083 101.487C98.4083 101.148 98.1329 100.872 97.7941 100.872Z" fill="#181202"/>
<path d="M96.0464 100.872C95.7077 100.872 95.4219 101.158 95.4219 101.487C95.4219 101.817 95.7077 102.111 96.0464 102.111C96.3852 102.111 96.6618 101.826 96.6618 101.487C96.6618 101.148 96.376 100.872 96.0464 100.872Z" fill="#181202"/>
<path d="M99.8257 98.6165C99.8257 98.892 99.6298 99.0164 99.4523 99.0164H98.2838C97.7664 99.0164 97.597 98.6868 97.597 98.2858V98.1349C97.6062 98.045 97.6063 97.9655 97.6063 97.8848V95.8256H96.5726L96.5818 98.3135C96.5726 98.6961 96.4216 99.0176 95.9042 99.0176H79.5721C79.2252 99.0176 78.9924 98.7767 78.9924 98.4379V95.4787H76.9516C75.8385 95.4787 75.0088 96.3257 75.0088 97.44V98.0554C75.0088 99.1247 75.8558 100.017 76.9079 100.017C77.5313 100.017 77.9772 99.8023 78.2987 99.4462C78.5926 99.8115 79.0385 100.043 79.5732 100.043H95.8881C96.4493 100.043 96.833 99.838 97.0912 99.5442C97.3666 99.838 97.7422 100.043 98.1513 100.043H99.7922C100.389 100.043 100.852 99.5799 100.852 98.9738V93.8401H99.8268V98.6177L99.8257 98.6165ZM77.9669 98.4909C77.726 98.8113 77.3342 98.9807 76.9067 98.9807C76.425 98.9807 76.0332 98.5705 76.0332 98.0542V97.4389C76.0332 96.8777 76.4077 96.5032 76.9505 96.5032H77.9669V98.4909Z" fill="#181202"/>
<path d="M109.143 100.872C108.803 100.872 108.527 101.158 108.527 101.487C108.527 101.817 108.803 102.111 109.143 102.111C109.483 102.111 109.757 101.826 109.757 101.487C109.757 101.148 109.481 100.872 109.143 100.872Z" fill="#181202"/>
<path d="M107.394 100.872C107.055 100.872 106.77 101.158 106.77 101.487C106.77 101.817 107.055 102.111 107.394 102.111C107.733 102.111 108.009 101.826 108.009 101.487C108.009 101.148 107.724 100.872 107.394 100.872Z" fill="#181202"/>
<path d="M114.812 95.5501C113.841 95.5501 112.967 96.2277 112.272 96.9848V95.9961H111.256V99.0176H109.634C109.116 99.0176 108.947 98.688 108.947 98.287V98.136C108.956 98.0461 108.956 97.9666 108.956 97.886V95.8267H107.922L107.932 98.3146C107.922 98.6972 107.771 99.0187 107.254 99.0187H105.515V97.5126C105.515 96.3626 104.65 95.4983 103.509 95.4983H102.528V96.5331H103.509C104.089 96.5331 104.49 96.9341 104.49 97.5137V99.0199H101.869V100.045H107.237C107.798 100.045 108.182 99.8403 108.44 99.5465C108.715 99.8403 109.091 100.045 109.5 100.045H115.062C116.186 100.045 117.095 99.1362 117.095 98.0127C117.095 96.4617 116.329 95.5525 114.813 95.5525L114.812 95.5501ZM114.999 99.0164H112.271V97.992C113.065 97.0551 113.877 96.5561 114.696 96.5561C115.515 96.5561 116.095 96.9491 116.095 97.9205C116.095 98.5267 115.605 99.0164 114.998 99.0164H114.999Z" fill="#181202"/>
<path d="M113.824 73.2338C113.824 75.3864 112.073 77.1391 109.919 77.1391C107.765 77.1391 106.014 75.3875 106.014 73.2338V72.7832C106.014 72.7406 106.017 72.6991 106.017 72.6576V67.4191H109.721V64.1499H106.017V62.2186H106.014V60.2953H102.744V64.1487H101.12V67.4179H102.744V72.7832C102.676 78.8215 97.7455 83.7132 91.6911 83.7132C85.6367 83.7132 80.6344 78.7535 80.6344 72.6565V58.6924H77.3652V72.1979C77.3652 74.3366 75.6251 76.0755 73.4875 76.0755C71.3499 76.0755 69.6099 74.3355 69.6099 72.1979V67.4179H73.3158V64.1487H69.6099V60.2953H66.3407V64.1487H64.7159V67.4179H66.3407V73.5138C66.3407 74.9255 65.1918 76.0755 63.779 76.0755C62.3663 76.0755 61.2174 74.9266 61.2174 73.5138V64.3412H57.9482V72.7648C57.9482 74.5901 56.4628 76.0755 54.6375 76.0755C52.8122 76.0755 51.3268 74.5901 51.3268 72.7648V64.3412H48.0576V72.7648C48.0576 76.3935 51.0099 79.3447 54.6375 79.3447C56.4974 79.3447 58.1752 78.5657 59.3736 77.3212C60.443 78.5576 62.0194 79.3447 63.779 79.3447C65.5387 79.3447 67.2672 78.4816 68.3366 77.1403C69.6376 78.4966 71.464 79.3447 73.4864 79.3447C75.3036 79.3447 76.9584 78.6579 78.2214 77.5367C80.2218 83.0403 85.5042 86.9824 91.69 86.9824C97.8757 86.9824 102.655 83.4055 104.851 78.3087C106.15 79.6051 107.941 80.4083 109.917 80.4083C113.873 80.4083 117.09 77.1898 117.09 73.235H113.821L113.824 73.2338Z" fill="#F5B432"/>
<path d="M35.0861 59.3159C29.473 59.3159 24.9062 63.8827 24.9062 69.4969C24.9062 75.1111 29.473 79.6767 35.0861 79.6767C40.6991 79.6767 45.267 75.1099 45.267 69.4969C45.267 63.8838 40.7003 59.3159 35.0861 59.3159ZM35.0861 76.4075C31.2753 76.4075 28.1743 73.3065 28.1743 69.4957C28.1743 65.6849 31.2753 62.584 35.0861 62.584C38.8969 62.584 41.9978 65.6849 41.9978 69.4957C41.9978 73.3065 38.8969 76.4075 35.0861 76.4075Z" fill="#F5B432"/>
<path d="M87.2989 79.3665C87.3035 79.3746 87.3069 79.3746 87.315 79.3792C90.2858 81.1653 94.2049 80.7804 96.7711 78.2188C98.328 76.6574 99.1242 74.5578 99.0263 72.3994H95.7536C95.8562 73.6947 95.3941 74.9703 94.4584 75.906C93.1217 77.2427 91.1523 77.5527 89.5217 76.8498L95.8919 70.4796L97.8048 68.5668H97.806C97.6734 68.357 97.5282 68.16 97.375 67.9664C97.1883 67.729 96.9901 67.4997 96.7746 67.2842C96.3782 66.8878 95.9495 66.5444 95.4955 66.254C92.5006 64.325 88.4593 64.6684 85.84 67.2876C82.8197 70.3033 82.8197 75.2066 85.8354 78.2222C86.2814 78.6717 86.7757 79.0554 87.2989 79.3665ZM88.1493 69.6004C89.4849 68.2648 91.4542 67.9537 93.0883 68.6601L87.2101 74.5382C87.2101 74.5382 87.2101 74.5382 87.2101 74.537C86.5038 72.9065 86.8184 70.9325 88.1505 69.6004H88.1493Z" fill="#F5B432"/>
<path d="M84.8426 35.4726C84.8426 39.3214 81.7117 42.4512 77.864 42.4512C74.0163 42.4512 70.8854 39.3203 70.8854 35.4726V15.8896H67.4353V37.8937C67.4353 40.4069 65.391 42.4512 62.8778 42.4512C60.3645 42.4512 58.3202 40.4069 58.3202 37.8937V29.1969H54.8701V31.7263C54.8701 39.0356 48.924 44.9817 41.6147 44.9817C34.3054 44.9817 28.3593 39.0356 28.3593 31.7263V29.1969H24.9092V31.7263C24.9092 40.9381 32.4029 48.4318 41.6147 48.4318C47.3949 48.4318 52.4986 45.4795 55.4981 41.005C56.715 43.8801 59.5648 45.9024 62.8778 45.9024C65.792 45.9024 68.341 44.3318 69.7423 41.9983C71.6552 44.3756 74.5844 45.9024 77.8651 45.9024C83.6165 45.9024 88.295 41.2239 88.295 35.4726V29.1969H84.8449V35.4726H84.8426Z" fill="#F5B432"/>
<path d="M117.094 15.8896H113.644V45.9013H117.094V15.8896Z" fill="#F5B432"/>
<path d="M81.7437 24.9759C82.7569 24.9759 83.5782 24.1546 83.5782 23.1414C83.5782 22.1282 82.7569 21.3069 81.7437 21.3069C80.7305 21.3069 79.9092 22.1282 79.9092 23.1414C79.9092 24.1546 80.7305 24.9759 81.7437 24.9759Z" fill="#F5B432"/>
<path d="M86.4576 24.9759C87.4708 24.9759 88.2921 24.1546 88.2921 23.1414C88.2921 22.1282 87.4708 21.3069 86.4576 21.3069C85.4444 21.3069 84.623 22.1282 84.623 23.1414C84.623 24.1546 85.4444 24.9759 86.4576 24.9759Z" fill="#F5B432"/>
<path d="M39.2545 24.2477C40.2676 24.2477 41.089 23.4263 41.089 22.4131C41.089 21.4 40.2676 20.5786 39.2545 20.5786C38.2413 20.5786 37.4199 21.4 37.4199 22.4131C37.4199 23.4263 38.2413 24.2477 39.2545 24.2477Z" fill="#F5B432"/>
<path d="M43.9693 24.2477C44.9825 24.2477 45.8038 23.4263 45.8038 22.4131C45.8038 21.4 44.9825 20.5786 43.9693 20.5786C42.9561 20.5786 42.1348 21.4 42.1348 22.4131C42.1348 23.4263 42.9561 24.2477 43.9693 24.2477Z" fill="#F5B432"/>
<path d="M100.535 28.3083C95.7478 28.3083 91.8541 32.2021 91.8541 36.989C91.8541 41.7758 95.7478 45.6696 100.535 45.6696C102.401 45.6696 104.129 45.0715 105.546 44.0643C105.199 45.5797 104.442 46.9717 103.315 48.0952C101.735 49.6751 99.6347 50.5451 97.4014 50.5451C94.7753 50.5451 92.3138 49.3029 90.7421 47.2437L88.291 49.6947C90.515 52.3843 93.8488 53.9952 97.4014 53.9952C100.557 53.9952 103.523 52.7657 105.752 50.5359C107.986 48.3084 109.215 45.3411 109.215 42.1814V36.989H109.214C109.214 32.2021 105.32 28.3083 100.535 28.3083ZM100.535 42.2183C97.6504 42.2183 95.3042 39.8721 95.3042 36.989C95.3042 34.1058 97.6504 31.7596 100.535 31.7596C103.419 31.7596 105.764 34.1058 105.764 36.989C105.764 39.8721 103.418 42.2183 100.535 42.2183Z" fill="#F5B432"/>
</g>
<defs>
<clipPath id="clip0_115_934">
<rect width="118" height="118" fill="white"/>
</clipPath>
</defs>
</svg>
