<svg width="90" height="90" viewBox="0 0 90 90" fill="none" xmlns="http://www.w3.org/2000/svg">
<g clip-path="url(#clip0_182_752)">
<path d="M11.9558 70.9489H9.84375V76.304H10.7851V74.5831H11.8485C13.0263 74.5831 13.9904 73.9556 13.9904 72.7471C13.9904 71.6529 13.2021 70.9489 11.9558 70.9489ZM11.8793 73.7332H10.7851V71.8058H11.8793C12.5833 71.8058 13.0342 72.1345 13.0342 72.7699C13.0342 73.343 12.5903 73.7332 11.8793 73.7332Z" fill="#181202"/>
<path d="M16.9209 72.1802C16.2934 72.1802 15.9189 72.5089 15.6579 72.8921V70.7186H14.7324V76.3031H15.6579V74.0233C15.6579 73.3966 16.0323 73.0213 16.5685 73.0213C17.1046 73.0213 17.4324 73.3808 17.4324 74.0083V76.3031H18.3579V73.7332C18.3579 72.7919 17.8306 72.1802 16.9209 72.1802Z" fill="#181202"/>
<path d="M20.9737 72.2031C20.3154 72.2031 19.8795 72.3411 19.4356 72.5397L19.6888 73.2815C20.0562 73.1286 20.3928 73.0292 20.8437 73.0292C21.487 73.0292 21.8386 73.3351 21.8386 73.8932V73.9934C21.5248 73.8932 21.211 73.8246 20.7215 73.8246C19.7811 73.8246 19.085 74.2527 19.085 75.1245V75.1404C19.085 75.9516 19.7582 76.3875 20.5229 76.3875C21.1346 76.3875 21.5556 76.1353 21.8315 75.8066V76.304H22.7491V73.9099C22.7491 72.8315 22.1682 72.2039 20.9746 72.2039L20.9737 72.2031ZM21.8535 74.8424C21.8535 75.3478 21.3938 75.6914 20.7821 75.6914C20.3462 75.6914 20.0025 75.477 20.0025 75.0955V75.0797C20.0025 74.6666 20.3462 74.4293 20.928 74.4293C21.2875 74.4293 21.6171 74.4979 21.8544 74.5902V74.8424H21.8535Z" fill="#181202"/>
<path d="M24.6599 73.1751V72.2646H23.7344V76.304H24.6599V74.7668C24.6599 73.6954 25.2259 73.1672 26.0371 73.1672H26.0907V72.1881C25.3797 72.1582 24.913 72.5713 24.6599 73.1751Z" fill="#181202"/>
<path d="M31.5061 72.1802C30.8943 72.1802 30.4654 72.4641 30.1376 72.8921C29.9231 72.4641 29.518 72.1802 28.9361 72.1802C28.3165 72.1802 27.9649 72.5168 27.7048 72.8763V72.2646H26.7793V76.304H27.7048V74.032C27.7048 73.4045 28.0572 73.0222 28.5687 73.0222C29.0803 73.0222 29.387 73.3737 29.387 74.0013V76.304H30.3134V74.0241C30.3134 73.3737 30.672 73.0222 31.1773 73.0222C31.6827 73.0222 31.9956 73.3658 31.9956 74.0092V76.304H32.922V73.7262C32.922 72.7392 32.3858 72.1802 31.5061 72.1802Z" fill="#181202"/>
<path d="M35.547 72.2031C34.8887 72.2031 34.4527 72.3411 34.0089 72.5397L34.262 73.2815C34.6294 73.1286 34.966 73.0292 35.4169 73.0292C36.0603 73.0292 36.4118 73.3351 36.4118 73.8932V73.9934C36.098 73.8932 35.7843 73.8246 35.2947 73.8246C34.3543 73.8246 33.6582 74.2527 33.6582 75.1245V75.1404C33.6582 75.9516 34.3314 76.3875 35.0961 76.3875C35.7078 76.3875 36.1288 76.1353 36.4048 75.8066V76.304H37.3224V73.9099C37.3224 72.8315 36.7414 72.2039 35.5479 72.2039L35.547 72.2031ZM36.4268 74.8424C36.4268 75.3478 35.9671 75.6914 35.3554 75.6914C34.9194 75.6914 34.5758 75.477 34.5758 75.0955V75.0797C34.5758 74.6666 34.9194 74.4293 35.5013 74.4293C35.8607 74.4293 36.1903 74.4979 36.4276 74.5902V74.8424H36.4268Z" fill="#181202"/>
<path d="M40.2189 75.5921C39.5079 75.5921 39.0104 75.0112 39.0104 74.2834C39.0104 73.5557 39.5 72.9906 40.1732 72.9906C40.6399 72.9906 40.9379 73.1971 41.2209 73.495L41.7948 72.8754C41.4204 72.4623 40.9458 72.1793 40.1803 72.1793C38.9718 72.1793 38.085 73.1435 38.085 74.2992C38.085 75.455 38.9727 76.3946 40.1732 76.3946C40.9616 76.3946 41.4274 76.0808 41.8256 75.6369L41.2675 75.0859C40.9766 75.3847 40.6558 75.5912 40.2189 75.5912V75.5921Z" fill="#181202"/>
<path d="M45.3212 72.2646L44.2727 75.2634L43.1257 72.2646H42.1387L43.8209 76.304C43.6688 76.6556 43.5071 76.7707 43.2479 76.7707C43.0571 76.7707 42.8734 76.7092 42.7047 76.6178L42.3909 77.3069C42.6739 77.4598 42.9569 77.5521 43.3472 77.5521C43.9976 77.5521 44.357 77.2462 44.6778 76.4201L46.2845 72.2663H45.3212V72.2646Z" fill="#181202"/>
<path d="M49.0154 72.2786C49.2668 72.2786 49.4839 72.0686 49.4839 71.8102C49.4839 71.5518 49.2668 71.3408 49.0154 71.3408C48.7641 71.3408 48.5391 71.5588 48.5391 71.8102C48.5391 72.0615 48.757 72.2786 49.0154 72.2786Z" fill="#181202"/>
<path d="M50.3483 72.2786C50.6067 72.2786 50.8177 72.0686 50.8177 71.8102C50.8177 71.5518 50.6067 71.3408 50.3483 71.3408C50.0899 71.3408 49.8799 71.5588 49.8799 71.8102C49.8799 72.0615 50.097 72.2786 50.3483 72.2786Z" fill="#181202"/>
<path d="M65.4361 76.9359C65.1769 76.9359 64.9668 77.1539 64.9668 77.4053C64.9668 77.6566 65.1769 77.8807 65.4361 77.8807C65.6954 77.8807 65.9046 77.6636 65.9046 77.4053C65.9046 77.1469 65.6945 76.9359 65.4361 76.9359Z" fill="#181202"/>
<path d="M64.1033 76.9359C63.8449 76.9359 63.627 77.1539 63.627 77.4053C63.627 77.6566 63.8449 77.8807 64.1033 77.8807C64.3617 77.8807 64.5727 77.6636 64.5727 77.4053C64.5727 77.1469 64.3547 76.9359 64.1033 76.9359Z" fill="#181202"/>
<path d="M66.9857 75.2159C66.9857 75.426 66.8363 75.5209 66.701 75.5209H65.8098C65.4151 75.5209 65.2859 75.2696 65.2859 74.9637V74.8486C65.293 74.78 65.293 74.7194 65.293 74.6578V73.0872H64.5046L64.5116 74.9848C64.5046 75.2766 64.3895 75.5218 63.9948 75.5218H51.5381C51.2735 75.5218 51.096 75.3381 51.096 75.0797V72.8227H49.5395C48.6904 72.8227 48.0576 73.4687 48.0576 74.3186V74.7879C48.0576 75.6035 48.7036 76.2838 49.5061 76.2838C49.9815 76.2838 50.3217 76.1203 50.5669 75.8488C50.791 76.1274 51.1312 76.304 51.539 76.304H63.9825C64.4105 76.304 64.7032 76.1476 64.9001 75.9235C65.1102 76.1476 65.3967 76.304 65.7087 76.304H66.9603C67.4155 76.304 67.7688 75.9507 67.7688 75.4884V71.5729H66.9866V75.2168L66.9857 75.2159ZM50.3138 75.1201C50.1301 75.3645 49.8313 75.4937 49.5052 75.4937C49.1378 75.4937 48.839 75.1808 48.839 74.787V74.3177C48.839 73.8897 49.1246 73.604 49.5386 73.604H50.3138V75.1201Z" fill="#181202"/>
<path d="M74.0914 76.9359C73.8321 76.9359 73.6221 77.1539 73.6221 77.4053C73.6221 77.6566 73.8321 77.8807 74.0914 77.8807C74.3507 77.8807 74.5599 77.6636 74.5599 77.4053C74.5599 77.1469 74.3498 76.9359 74.0914 76.9359Z" fill="#181202"/>
<path d="M72.7586 76.9359C72.5002 76.9359 72.2822 77.1539 72.2822 77.4053C72.2822 77.6566 72.5002 77.8807 72.7586 77.8807C73.017 77.8807 73.2279 77.6636 73.2279 77.4053C73.2279 77.1469 73.01 76.9359 72.7586 76.9359Z" fill="#181202"/>
<path d="M78.4158 72.8771C77.6749 72.8771 77.0087 73.3939 76.4787 73.9714V73.2173H75.7035V75.5218H74.466C74.0714 75.5218 73.9422 75.2704 73.9422 74.9645V74.8494C73.9492 74.7808 73.9492 74.7202 73.9492 74.6587V73.0881H73.1608L73.1679 74.9856C73.1608 75.2774 73.0457 75.5226 72.6511 75.5226H71.3248V74.3739C71.3248 73.4968 70.6647 72.8376 69.7946 72.8376H69.0467V73.6268H69.7946C70.2367 73.6268 70.5426 73.9327 70.5426 74.3748V75.5235H68.5439V76.3058H72.6379C73.0659 76.3058 73.3586 76.1493 73.5555 75.9252C73.7655 76.1493 74.052 76.3058 74.3641 76.3058H78.6065C79.4635 76.3058 80.1569 75.6123 80.1569 74.7554C80.1569 73.5724 79.5725 72.8789 78.4167 72.8789L78.4158 72.8771ZM78.5582 75.5209H76.4778V74.7395C77.0834 74.025 77.7021 73.6444 78.3271 73.6444C78.952 73.6444 79.394 73.9441 79.394 74.685C79.394 75.1474 79.0205 75.5209 78.5573 75.5209H78.5582Z" fill="#181202"/>
<path d="M77.6629 55.8563C77.6629 57.4981 76.327 58.8349 74.6843 58.8349C73.0416 58.8349 71.7057 57.499 71.7057 55.8563V55.5126C71.7057 55.4801 71.7083 55.4485 71.7083 55.4168V51.4213H74.5331V48.9279H71.7083V47.4548H71.7057V45.9879H69.2122V48.927H67.9729V51.4205H69.2122V55.5126C69.1604 60.1181 65.3995 63.8491 60.7817 63.8491C56.164 63.8491 52.3486 60.0663 52.3486 55.416V44.7654H49.8552V55.0662C49.8552 56.6974 48.528 58.0237 46.8977 58.0237C45.2673 58.0237 43.9401 56.6965 43.9401 55.0662V51.4205H46.7667V48.927H43.9401V45.9879H41.4467V48.927H40.2074V51.4205H41.4467V56.0699C41.4467 57.1465 40.5704 58.0237 39.4929 58.0237C38.4153 58.0237 37.5391 57.1474 37.5391 56.0699V49.0738H35.0456V55.4986C35.0456 56.8908 33.9127 58.0237 32.5205 58.0237C31.1283 58.0237 29.9954 56.8908 29.9954 55.4986V49.0738H27.502V55.4986C27.502 58.2663 29.7537 60.5171 32.5205 60.5171C33.9391 60.5171 35.2187 59.923 36.1328 58.9738C36.9484 59.9168 38.1508 60.5171 39.4929 60.5171C40.835 60.5171 42.1533 59.8588 42.9689 58.8358C43.9612 59.8703 45.3543 60.5171 46.8968 60.5171C48.2828 60.5171 49.5449 59.9933 50.5082 59.1381C52.034 63.3358 56.0629 66.3425 60.7809 66.3425C65.4988 66.3425 69.1437 63.6144 70.8188 59.727C71.8094 60.7158 73.1761 61.3284 74.6825 61.3284C77.6998 61.3284 80.1537 58.8736 80.1537 55.8572H77.6602L77.6629 55.8563Z" fill="#F5B432"/>
<path d="M17.608 45.2408C13.3269 45.2408 9.84375 48.724 9.84375 53.006C9.84375 57.288 13.3269 60.7702 17.608 60.7702C21.8892 60.7702 25.3731 57.2871 25.3731 53.006C25.3731 48.7248 21.89 45.2408 17.608 45.2408ZM17.608 58.2768C14.7015 58.2768 12.3363 55.9116 12.3363 53.0051C12.3363 50.0986 14.7015 47.7334 17.608 47.7334C20.5146 47.7334 22.8797 50.0986 22.8797 53.0051C22.8797 55.9116 20.5146 58.2768 17.608 58.2768Z" fill="#F5B432"/>
<path d="M57.4317 60.5338C57.4352 60.54 57.4378 60.54 57.444 60.5435C59.7098 61.9058 62.699 61.6123 64.6563 59.6585C65.8437 58.4675 66.451 56.8662 66.3763 55.22H63.8802C63.9584 56.2079 63.606 57.1808 62.8923 57.8945C61.8728 58.914 60.3707 59.1504 59.1271 58.6143L63.9857 53.7557L65.4447 52.2967H65.4455C65.3445 52.1368 65.2337 51.9865 65.1168 51.8388C64.9744 51.6578 64.8233 51.4829 64.6589 51.3185C64.3566 51.0162 64.0296 50.7543 63.6833 50.5328C61.399 49.0615 58.3167 49.3234 56.319 51.3211C54.0154 53.6212 54.0154 57.361 56.3155 59.6611C56.6556 60.0039 57.0326 60.2965 57.4317 60.5338ZM58.0803 53.0851C59.099 52.0665 60.601 51.8292 61.8473 52.3679L57.364 56.8512C57.364 56.8512 57.364 56.8512 57.364 56.8503C56.8252 55.6067 57.0652 54.1011 58.0812 53.0851H58.0803Z" fill="#F5B432"/>
<path d="M55.5576 27.0554C55.5576 29.9909 53.1696 32.3781 50.235 32.3781C47.3003 32.3781 44.9123 29.9901 44.9123 27.0554V12.1193H42.2809V28.902C42.2809 30.8189 40.7217 32.3781 38.8048 32.3781C36.8879 32.3781 35.3287 30.8189 35.3287 28.902V22.2689H32.6973V24.1981C32.6973 29.773 28.1621 34.3081 22.5872 34.3081C17.0123 34.3081 12.4771 29.773 12.4771 24.1981V22.2689H9.8457V24.1981C9.8457 31.2241 15.5612 36.9396 22.5872 36.9396C26.9958 36.9396 30.8885 34.6878 33.1763 31.275C34.1044 33.4679 36.2779 35.0104 38.8048 35.0104C41.0275 35.0104 42.9717 33.8124 44.0404 32.0326C45.4994 33.8458 47.7336 35.0104 50.2358 35.0104C54.6225 35.0104 58.1908 31.442 58.1908 27.0554V22.2689H55.5594V27.0554H55.5576Z" fill="#F5B432"/>
<path d="M80.1559 12.1193H77.5244V35.0095H80.1559V12.1193Z" fill="#F5B432"/>
<path d="M53.1941 19.0494C53.9669 19.0494 54.5934 18.423 54.5934 17.6502C54.5934 16.8774 53.9669 16.251 53.1941 16.251C52.4214 16.251 51.7949 16.8774 51.7949 17.6502C51.7949 18.423 52.4214 19.0494 53.1941 19.0494Z" fill="#F5B432"/>
<path d="M56.7898 19.0494C57.5626 19.0494 58.1891 18.423 58.1891 17.6502C58.1891 16.8774 57.5626 16.251 56.7898 16.251C56.0171 16.251 55.3906 16.8774 55.3906 17.6502C55.3906 18.423 56.0171 19.0494 56.7898 19.0494Z" fill="#F5B432"/>
<path d="M20.7869 18.494C21.5597 18.494 22.1861 17.8675 22.1861 17.0948C22.1861 16.322 21.5597 15.6956 20.7869 15.6956C20.0141 15.6956 19.3877 16.322 19.3877 17.0948C19.3877 17.8675 20.0141 18.494 20.7869 18.494Z" fill="#F5B432"/>
<path d="M24.3836 18.494C25.1564 18.494 25.7828 17.8675 25.7828 17.0948C25.7828 16.322 25.1564 15.6956 24.3836 15.6956C23.6108 15.6956 22.9844 16.322 22.9844 17.0948C22.9844 17.8675 23.6108 18.494 24.3836 18.494Z" fill="#F5B432"/>
<path d="M67.5259 21.5912C63.8749 21.5912 60.9051 24.5611 60.9051 28.212C60.9051 31.863 63.8749 34.8329 67.5259 34.8329C68.9497 34.8329 70.2672 34.3767 71.3482 33.6085C71.0837 34.7643 70.5063 35.826 69.6467 36.6829C68.4417 37.8879 66.8395 38.5515 65.1361 38.5515C63.1331 38.5515 61.2558 37.604 60.0569 36.0334L58.1875 37.9029C59.8838 39.9542 62.4265 41.1829 65.1361 41.1829C67.5426 41.1829 69.8049 40.2452 71.5056 38.5445C73.2089 36.8455 74.1467 34.5824 74.1467 32.1724V28.212H74.1458C74.1458 24.5611 71.176 21.5912 67.5259 21.5912ZM67.5259 32.2005C65.326 32.2005 63.5365 30.4111 63.5365 28.212C63.5365 26.013 65.326 24.2236 67.5259 24.2236C69.7258 24.2236 71.5144 26.013 71.5144 28.212C71.5144 30.4111 69.7249 32.2005 67.5259 32.2005Z" fill="#F5B432"/>
</g>
<defs>
<clipPath id="clip0_182_752">
<rect width="90" height="90" fill="white"/>
</clipPath>
</defs>
</svg>
